STARTFONT 2.1
COMMENT The X16 ROM's ISO charset (PXLfont), public domain,
COMMENT made proportional by trimming each glyph's blank
COMMENT columns. Generated by tools/charset2bdf.py -- see
COMMENT there for provenance. Do not hand-edit.
FONT -cxrf-pxl8-medium-r-normal--8-80-72-72-p-8-iso8859-15
SIZE 8 72 72
FONTBOUNDINGBOX 8 8 0 -1
STARTPROPERTIES 4
FONT_ASCENT 7
FONT_DESCENT 1
DEFAULT_CHAR 32
COPYRIGHT "public domain"
ENDPROPERTIES
CHARS 95
STARTCHAR U+0020
ENCODING 32
SWIDTH 375 0
DWIDTH 3 0
BBX 3 8 0 -1
BITMAP
00
00
00
00
00
00
00
00
ENDCHAR
STARTCHAR U+0021
ENCODING 33
SWIDTH 250 0
DWIDTH 2 0
BBX 2 8 0 -1
BITMAP
C0
C0
C0
C0
C0
00
C0
00
ENDCHAR
STARTCHAR U+0022
ENCODING 34
SWIDTH 750 0
DWIDTH 6 0
BBX 6 8 0 -1
BITMAP
CC
CC
CC
00
00
00
00
00
ENDCHAR
STARTCHAR U+0023
ENCODING 35
SWIDTH 1000 0
DWIDTH 8 0
BBX 8 8 0 -1
BITMAP
00
36
7F
36
6C
FE
6C
00
ENDCHAR
STARTCHAR U+0024
ENCODING 36
SWIDTH 750 0
DWIDTH 6 0
BBX 6 8 0 -1
BITMAP
30
7C
C0
78
0C
F8
30
00
ENDCHAR
STARTCHAR U+0025
ENCODING 37
SWIDTH 750 0
DWIDTH 6 0
BBX 6 8 0 -1
BITMAP
C4
CC
18
30
60
CC
8C
00
ENDCHAR
STARTCHAR U+0026
ENCODING 38
SWIDTH 875 0
DWIDTH 7 0
BBX 7 8 0 -1
BITMAP
38
6C
38
70
DA
CC
76
00
ENDCHAR
STARTCHAR U+0027
ENCODING 39
SWIDTH 375 0
DWIDTH 3 0
BBX 3 8 0 -1
BITMAP
60
60
C0
00
00
00
00
00
ENDCHAR
STARTCHAR U+0028
ENCODING 40
SWIDTH 500 0
DWIDTH 4 0
BBX 4 8 0 -1
BITMAP
30
60
C0
C0
C0
60
30
00
ENDCHAR
STARTCHAR U+0029
ENCODING 41
SWIDTH 500 0
DWIDTH 4 0
BBX 4 8 0 -1
BITMAP
C0
60
30
30
30
60
C0
00
ENDCHAR
STARTCHAR U+002A
ENCODING 42
SWIDTH 1000 0
DWIDTH 8 0
BBX 8 8 0 -1
BITMAP
00
66
3C
FF
3C
66
00
00
ENDCHAR
STARTCHAR U+002B
ENCODING 43
SWIDTH 750 0
DWIDTH 6 0
BBX 6 8 0 -1
BITMAP
00
30
30
FC
30
30
00
00
ENDCHAR
STARTCHAR U+002C
ENCODING 44
SWIDTH 375 0
DWIDTH 3 0
BBX 3 8 0 -1
BITMAP
00
00
00
00
00
60
60
C0
ENDCHAR
STARTCHAR U+002D
ENCODING 45
SWIDTH 750 0
DWIDTH 6 0
BBX 6 8 0 -1
BITMAP
00
00
00
FC
00
00
00
00
ENDCHAR
STARTCHAR U+002E
ENCODING 46
SWIDTH 250 0
DWIDTH 2 0
BBX 2 8 0 -1
BITMAP
00
00
00
00
00
C0
C0
00
ENDCHAR
STARTCHAR U+002F
ENCODING 47
SWIDTH 875 0
DWIDTH 7 0
BBX 7 8 0 -1
BITMAP
00
06
0C
18
30
60
C0
00
ENDCHAR
STARTCHAR U+0030
ENCODING 48
SWIDTH 750 0
DWIDTH 6 0
BBX 6 8 0 -1
BITMAP
78
CC
DC
EC
CC
CC
78
00
ENDCHAR
STARTCHAR U+0031
ENCODING 49
SWIDTH 750 0
DWIDTH 6 0
BBX 6 8 0 -1
BITMAP
30
30
F0
30
30
30
FC
00
ENDCHAR
STARTCHAR U+0032
ENCODING 50
SWIDTH 750 0
DWIDTH 6 0
BBX 6 8 0 -1
BITMAP
78
CC
0C
38
60
C0
FC
00
ENDCHAR
STARTCHAR U+0033
ENCODING 51
SWIDTH 750 0
DWIDTH 6 0
BBX 6 8 0 -1
BITMAP
78
CC
0C
38
0C
CC
78
00
ENDCHAR
STARTCHAR U+0034
ENCODING 52
SWIDTH 875 0
DWIDTH 7 0
BBX 7 8 0 -1
BITMAP
1C
3C
6C
CC
FE
0C
0C
00
ENDCHAR
STARTCHAR U+0035
ENCODING 53
SWIDTH 750 0
DWIDTH 6 0
BBX 6 8 0 -1
BITMAP
FC
C0
F8
0C
0C
CC
78
00
ENDCHAR
STARTCHAR U+0036
ENCODING 54
SWIDTH 750 0
DWIDTH 6 0
BBX 6 8 0 -1
BITMAP
78
CC
C0
F8
CC
CC
78
00
ENDCHAR
STARTCHAR U+0037
ENCODING 55
SWIDTH 750 0
DWIDTH 6 0
BBX 6 8 0 -1
BITMAP
FC
0C
18
18
30
30
30
00
ENDCHAR
STARTCHAR U+0038
ENCODING 56
SWIDTH 750 0
DWIDTH 6 0
BBX 6 8 0 -1
BITMAP
78
CC
CC
78
CC
CC
78
00
ENDCHAR
STARTCHAR U+0039
ENCODING 57
SWIDTH 750 0
DWIDTH 6 0
BBX 6 8 0 -1
BITMAP
78
CC
CC
7C
0C
CC
78
00
ENDCHAR
STARTCHAR U+003A
ENCODING 58
SWIDTH 250 0
DWIDTH 2 0
BBX 2 8 0 -1
BITMAP
00
C0
C0
00
00
C0
C0
00
ENDCHAR
STARTCHAR U+003B
ENCODING 59
SWIDTH 375 0
DWIDTH 3 0
BBX 3 8 0 -1
BITMAP
00
60
60
00
00
60
60
C0
ENDCHAR
STARTCHAR U+003C
ENCODING 60
SWIDTH 750 0
DWIDTH 6 0
BBX 6 8 0 -1
BITMAP
1C
30
60
C0
60
30
1C
00
ENDCHAR
STARTCHAR U+003D
ENCODING 61
SWIDTH 750 0
DWIDTH 6 0
BBX 6 8 0 -1
BITMAP
00
00
FC
00
FC
00
00
00
ENDCHAR
STARTCHAR U+003E
ENCODING 62
SWIDTH 750 0
DWIDTH 6 0
BBX 6 8 0 -1
BITMAP
E0
30
18
0C
18
30
E0
00
ENDCHAR
STARTCHAR U+003F
ENCODING 63
SWIDTH 750 0
DWIDTH 6 0
BBX 6 8 0 -1
BITMAP
78
CC
0C
18
30
00
30
00
ENDCHAR
STARTCHAR U+0040
ENCODING 64
SWIDTH 750 0
DWIDTH 6 0
BBX 6 8 0 -1
BITMAP
78
CC
DC
DC
DC
C0
7C
00
ENDCHAR
STARTCHAR U+0041
ENCODING 65
SWIDTH 750 0
DWIDTH 6 0
BBX 6 8 0 -1
BITMAP
30
78
48
CC
FC
CC
CC
00
ENDCHAR
STARTCHAR U+0042
ENCODING 66
SWIDTH 750 0
DWIDTH 6 0
BBX 6 8 0 -1
BITMAP
F8
CC
CC
F8
CC
CC
F8
00
ENDCHAR
STARTCHAR U+0043
ENCODING 67
SWIDTH 750 0
DWIDTH 6 0
BBX 6 8 0 -1
BITMAP
78
CC
C0
C0
C0
CC
78
00
ENDCHAR
STARTCHAR U+0044
ENCODING 68
SWIDTH 750 0
DWIDTH 6 0
BBX 6 8 0 -1
BITMAP
F8
CC
CC
CC
CC
CC
F8
00
ENDCHAR
STARTCHAR U+0045
ENCODING 69
SWIDTH 750 0
DWIDTH 6 0
BBX 6 8 0 -1
BITMAP
FC
C0
C0
F8
C0
C0
FC
00
ENDCHAR
STARTCHAR U+0046
ENCODING 70
SWIDTH 750 0
DWIDTH 6 0
BBX 6 8 0 -1
BITMAP
FC
C0
C0
F8
C0
C0
C0
00
ENDCHAR
STARTCHAR U+0047
ENCODING 71
SWIDTH 750 0
DWIDTH 6 0
BBX 6 8 0 -1
BITMAP
78
CC
C0
DC
CC
CC
7C
00
ENDCHAR
STARTCHAR U+0048
ENCODING 72
SWIDTH 750 0
DWIDTH 6 0
BBX 6 8 0 -1
BITMAP
CC
CC
CC
FC
CC
CC
CC
00
ENDCHAR
STARTCHAR U+0049
ENCODING 73
SWIDTH 750 0
DWIDTH 6 0
BBX 6 8 0 -1
BITMAP
FC
30
30
30
30
30
FC
00
ENDCHAR
STARTCHAR U+004A
ENCODING 74
SWIDTH 750 0
DWIDTH 6 0
BBX 6 8 0 -1
BITMAP
3C
0C
0C
0C
0C
CC
78
00
ENDCHAR
STARTCHAR U+004B
ENCODING 75
SWIDTH 750 0
DWIDTH 6 0
BBX 6 8 0 -1
BITMAP
CC
D8
F0
E0
F0
D8
CC
00
ENDCHAR
STARTCHAR U+004C
ENCODING 76
SWIDTH 750 0
DWIDTH 6 0
BBX 6 8 0 -1
BITMAP
C0
C0
C0
C0
C0
C0
FC
00
ENDCHAR
STARTCHAR U+004D
ENCODING 77
SWIDTH 875 0
DWIDTH 7 0
BBX 7 8 0 -1
BITMAP
C6
EE
FE
D6
C6
C6
C6
00
ENDCHAR
STARTCHAR U+004E
ENCODING 78
SWIDTH 750 0
DWIDTH 6 0
BBX 6 8 0 -1
BITMAP
CC
EC
FC
FC
DC
CC
CC
00
ENDCHAR
STARTCHAR U+004F
ENCODING 79
SWIDTH 750 0
DWIDTH 6 0
BBX 6 8 0 -1
BITMAP
78
CC
CC
CC
CC
CC
78
00
ENDCHAR
STARTCHAR U+0050
ENCODING 80
SWIDTH 750 0
DWIDTH 6 0
BBX 6 8 0 -1
BITMAP
F8
CC
CC
F8
C0
C0
C0
00
ENDCHAR
STARTCHAR U+0051
ENCODING 81
SWIDTH 750 0
DWIDTH 6 0
BBX 6 8 0 -1
BITMAP
78
CC
CC
CC
EC
D8
6C
00
ENDCHAR
STARTCHAR U+0052
ENCODING 82
SWIDTH 750 0
DWIDTH 6 0
BBX 6 8 0 -1
BITMAP
F8
CC
CC
F8
CC
CC
CC
00
ENDCHAR
STARTCHAR U+0053
ENCODING 83
SWIDTH 750 0
DWIDTH 6 0
BBX 6 8 0 -1
BITMAP
78
CC
C0
78
0C
CC
78
00
ENDCHAR
STARTCHAR U+0054
ENCODING 84
SWIDTH 750 0
DWIDTH 6 0
BBX 6 8 0 -1
BITMAP
FC
30
30
30
30
30
30
00
ENDCHAR
STARTCHAR U+0055
ENCODING 85
SWIDTH 750 0
DWIDTH 6 0
BBX 6 8 0 -1
BITMAP
CC
CC
CC
CC
CC
CC
78
00
ENDCHAR
STARTCHAR U+0056
ENCODING 86
SWIDTH 750 0
DWIDTH 6 0
BBX 6 8 0 -1
BITMAP
CC
CC
CC
CC
48
78
30
00
ENDCHAR
STARTCHAR U+0057
ENCODING 87
SWIDTH 875 0
DWIDTH 7 0
BBX 7 8 0 -1
BITMAP
C6
C6
D6
D6
FE
EE
C6
00
ENDCHAR
STARTCHAR U+0058
ENCODING 88
SWIDTH 750 0
DWIDTH 6 0
BBX 6 8 0 -1
BITMAP
CC
CC
78
30
78
CC
CC
00
ENDCHAR
STARTCHAR U+0059
ENCODING 89
SWIDTH 750 0
DWIDTH 6 0
BBX 6 8 0 -1
BITMAP
CC
CC
CC
78
30
30
30
00
ENDCHAR
STARTCHAR U+005A
ENCODING 90
SWIDTH 750 0
DWIDTH 6 0
BBX 6 8 0 -1
BITMAP
FC
0C
18
30
60
C0
FC
00
ENDCHAR
STARTCHAR U+005B
ENCODING 91
SWIDTH 500 0
DWIDTH 4 0
BBX 4 8 0 -1
BITMAP
F0
C0
C0
C0
C0
C0
F0
00
ENDCHAR
STARTCHAR U+005C
ENCODING 92
SWIDTH 875 0
DWIDTH 7 0
BBX 7 8 0 -1
BITMAP
00
C0
60
30
18
0C
06
00
ENDCHAR
STARTCHAR U+005D
ENCODING 93
SWIDTH 500 0
DWIDTH 4 0
BBX 4 8 0 -1
BITMAP
F0
30
30
30
30
30
F0
00
ENDCHAR
STARTCHAR U+005E
ENCODING 94
SWIDTH 750 0
DWIDTH 6 0
BBX 6 8 0 -1
BITMAP
30
78
CC
00
00
00
00
00
ENDCHAR
STARTCHAR U+005F
ENCODING 95
SWIDTH 1000 0
DWIDTH 8 0
BBX 8 8 0 -1
BITMAP
00
00
00
00
00
00
00
FF
ENDCHAR
STARTCHAR U+0060
ENCODING 96
SWIDTH 500 0
DWIDTH 4 0
BBX 4 8 0 -1
BITMAP
C0
60
30
00
00
00
00
00
ENDCHAR
STARTCHAR U+0061
ENCODING 97
SWIDTH 750 0
DWIDTH 6 0
BBX 6 8 0 -1
BITMAP
00
00
78
0C
7C
CC
7C
00
ENDCHAR
STARTCHAR U+0062
ENCODING 98
SWIDTH 750 0
DWIDTH 6 0
BBX 6 8 0 -1
BITMAP
C0
C0
D8
EC
CC
CC
F8
00
ENDCHAR
STARTCHAR U+0063
ENCODING 99
SWIDTH 750 0
DWIDTH 6 0
BBX 6 8 0 -1
BITMAP
00
00
78
CC
C0
CC
78
00
ENDCHAR
STARTCHAR U+0064
ENCODING 100
SWIDTH 750 0
DWIDTH 6 0
BBX 6 8 0 -1
BITMAP
0C
0C
6C
DC
CC
CC
7C
00
ENDCHAR
STARTCHAR U+0065
ENCODING 101
SWIDTH 750 0
DWIDTH 6 0
BBX 6 8 0 -1
BITMAP
00
00
78
CC
FC
C0
7C
00
ENDCHAR
STARTCHAR U+0066
ENCODING 102
SWIDTH 750 0
DWIDTH 6 0
BBX 6 8 0 -1
BITMAP
38
6C
60
F0
60
60
60
00
ENDCHAR
STARTCHAR U+0067
ENCODING 103
SWIDTH 750 0
DWIDTH 6 0
BBX 6 8 0 -1
BITMAP
00
00
6C
DC
CC
7C
0C
F8
ENDCHAR
STARTCHAR U+0068
ENCODING 104
SWIDTH 750 0
DWIDTH 6 0
BBX 6 8 0 -1
BITMAP
C0
C0
D8
EC
CC
CC
CC
00
ENDCHAR
STARTCHAR U+0069
ENCODING 105
SWIDTH 250 0
DWIDTH 2 0
BBX 2 8 0 -1
BITMAP
C0
00
C0
C0
C0
C0
C0
00
ENDCHAR
STARTCHAR U+006A
ENCODING 106
SWIDTH 750 0
DWIDTH 6 0
BBX 6 8 0 -1
BITMAP
0C
00
0C
0C
0C
0C
CC
78
ENDCHAR
STARTCHAR U+006B
ENCODING 107
SWIDTH 750 0
DWIDTH 6 0
BBX 6 8 0 -1
BITMAP
C0
C0
CC
D8
F0
D8
CC
00
ENDCHAR
STARTCHAR U+006C
ENCODING 108
SWIDTH 375 0
DWIDTH 3 0
BBX 3 8 0 -1
BITMAP
E0
60
60
60
60
60
60
00
ENDCHAR
STARTCHAR U+006D
ENCODING 109
SWIDTH 875 0
DWIDTH 7 0
BBX 7 8 0 -1
BITMAP
00
00
EC
D6
D6
C6
C6
00
ENDCHAR
STARTCHAR U+006E
ENCODING 110
SWIDTH 750 0
DWIDTH 6 0
BBX 6 8 0 -1
BITMAP
00
00
D8
EC
CC
CC
CC
00
ENDCHAR
STARTCHAR U+006F
ENCODING 111
SWIDTH 750 0
DWIDTH 6 0
BBX 6 8 0 -1
BITMAP
00
00
78
CC
CC
CC
78
00
ENDCHAR
STARTCHAR U+0070
ENCODING 112
SWIDTH 750 0
DWIDTH 6 0
BBX 6 8 0 -1
BITMAP
00
00
D8
EC
CC
F8
C0
C0
ENDCHAR
STARTCHAR U+0071
ENCODING 113
SWIDTH 750 0
DWIDTH 6 0
BBX 6 8 0 -1
BITMAP
00
00
6C
DC
CC
7C
0C
0C
ENDCHAR
STARTCHAR U+0072
ENCODING 114
SWIDTH 750 0
DWIDTH 6 0
BBX 6 8 0 -1
BITMAP
00
00
D8
EC
C0
C0
C0
00
ENDCHAR
STARTCHAR U+0073
ENCODING 115
SWIDTH 750 0
DWIDTH 6 0
BBX 6 8 0 -1
BITMAP
00
00
7C
C0
78
0C
F8
00
ENDCHAR
STARTCHAR U+0074
ENCODING 116
SWIDTH 750 0
DWIDTH 6 0
BBX 6 8 0 -1
BITMAP
60
60
F0
60
60
6C
38
00
ENDCHAR
STARTCHAR U+0075
ENCODING 117
SWIDTH 750 0
DWIDTH 6 0
BBX 6 8 0 -1
BITMAP
00
00
CC
CC
CC
DC
6C
00
ENDCHAR
STARTCHAR U+0076
ENCODING 118
SWIDTH 750 0
DWIDTH 6 0
BBX 6 8 0 -1
BITMAP
00
00
CC
CC
CC
78
30
00
ENDCHAR
STARTCHAR U+0077
ENCODING 119
SWIDTH 875 0
DWIDTH 7 0
BBX 7 8 0 -1
BITMAP
00
00
C6
D6
D6
FE
6C
00
ENDCHAR
STARTCHAR U+0078
ENCODING 120
SWIDTH 750 0
DWIDTH 6 0
BBX 6 8 0 -1
BITMAP
00
00
CC
78
30
78
CC
00
ENDCHAR
STARTCHAR U+0079
ENCODING 121
SWIDTH 750 0
DWIDTH 6 0
BBX 6 8 0 -1
BITMAP
00
00
CC
CC
CC
78
30
E0
ENDCHAR
STARTCHAR U+007A
ENCODING 122
SWIDTH 750 0
DWIDTH 6 0
BBX 6 8 0 -1
BITMAP
00
00
FC
18
30
60
FC
00
ENDCHAR
STARTCHAR U+007B
ENCODING 123
SWIDTH 750 0
DWIDTH 6 0
BBX 6 8 0 -1
BITMAP
1C
30
30
E0
30
30
1C
00
ENDCHAR
STARTCHAR U+007C
ENCODING 124
SWIDTH 250 0
DWIDTH 2 0
BBX 2 8 0 -1
BITMAP
C0
C0
C0
C0
C0
C0
C0
00
ENDCHAR
STARTCHAR U+007D
ENCODING 125
SWIDTH 750 0
DWIDTH 6 0
BBX 6 8 0 -1
BITMAP
E0
30
30
1C
30
30
E0
00
ENDCHAR
STARTCHAR U+007E
ENCODING 126
SWIDTH 875 0
DWIDTH 7 0
BBX 7 8 0 -1
BITMAP
00
00
76
DC
00
00
00
00
ENDCHAR
ENDFONT
